<?xml version="1.0" encoding="UTF-8" standalone="no"?>
<!DOCTYPE svg PUBLIC "-//W3C//DTD SVG 1.1//EN"
 "http://www.w3.org/Graphics/SVG/1.1/DTD/svg11.dtd">
<!-- Generated by graphviz version 3.0.0 (20220226.1711)
 -->
<!-- Title: dependencies Pages: 1 -->
<svg width="338pt" height="174pt"
 viewBox="0.00 0.00 338.00 173.80" xmlns="http://www.w3.org/2000/svg" xmlns:xlink="http://www.w3.org/1999/xlink">
<g id="graph0" class="graph" transform="scale(1 1) rotate(0) translate(4 169.8)">
<title>dependencies</title>
<polygon fill="white" stroke="transparent" points="-4,4 -4,-169.8 334,-169.8 334,4 -4,4"/>
<text text-anchor="middle" x="165" y="-8.2" font-family="sans-serif" font-size="14.00">dependencies</text>
<g id="clust1" class="cluster">
<title>cluster_ChatModule</title>
<polygon fill="none" stroke="black" stroke-dasharray="1,5" points="8,-32.8 8,-157.8 322,-157.8 322,-32.8 8,-32.8"/>
</g>
<g id="clust6" class="cluster">
<title>cluster_ChatModule_providers</title>
<polygon fill="none" stroke="black" points="182,-40.8 182,-92.8 314,-92.8 314,-40.8 182,-40.8"/>
</g>
<g id="clust3" class="cluster">
<title>cluster_ChatModule_imports</title>
<polygon fill="none" stroke="black" points="16,-40.8 16,-92.8 174,-92.8 174,-40.8 16,-40.8"/>
</g>
<!-- AuthenticationModule -->
<g id="node1" class="node">
<title>AuthenticationModule</title>
<polygon fill="#8dd3c7" stroke="black" points="166.25,-84.8 163.25,-88.8 142.25,-88.8 139.25,-84.8 23.75,-84.8 23.75,-48.8 166.25,-48.8 166.25,-84.8"/>
<text text-anchor="middle" x="95" y="-62.6" font-family="Times,serif" font-size="14.00">AuthenticationModule</text>
</g>
<!-- ChatModule -->
<g id="node2" class="node">
<title>ChatModule</title>
<polygon fill="#8dd3c7" stroke="black" points="213.99,-149.8 210.99,-153.8 189.99,-153.8 186.99,-149.8 128.01,-149.8 128.01,-113.8 213.99,-113.8 213.99,-149.8"/>
<text text-anchor="middle" x="171" y="-127.6" font-family="Times,serif" font-size="14.00">ChatModule</text>
</g>
<!-- AuthenticationModule&#45;&gt;ChatModule -->
<g id="edge1" class="edge">
<title>AuthenticationModule&#45;&gt;ChatModule</title>
<path fill="none" stroke="black" d="M147.19,-84.91C147.19,-84.91 147.19,-103.79 147.19,-103.79"/>
<polygon fill="black" stroke="black" points="143.69,-103.79 147.19,-113.79 150.69,-103.79 143.69,-103.79"/>
</g>
<!-- ChatService -->
<g id="node3" class="node">
<title>ChatService</title>
<ellipse fill="#fdb462" stroke="black" cx="248" cy="-66.8" rx="58.46" ry="18"/>
<text text-anchor="middle" x="248" y="-62.6" font-family="Times,serif" font-size="14.00">ChatService</text>
</g>
<!-- ChatService&#45;&gt;ChatModule -->
<g id="edge2" class="edge">
<title>ChatService&#45;&gt;ChatModule</title>
<path fill="none" stroke="black" d="M201.88,-77.83C201.88,-77.83 201.88,-103.58 201.88,-103.58"/>
<polygon fill="black" stroke="black" points="198.38,-103.58 201.88,-113.58 205.38,-103.58 198.38,-103.58"/>
</g>
</g>
</svg>
