<?xml version="1.0" encoding="UTF-8" standalone="no"?>
<!DOCTYPE svg PUBLIC "-//W3C//DTD SVG 1.1//EN"
 "http://www.w3.org/Graphics/SVG/1.1/DTD/svg11.dtd">
<!-- Generated by graphviz version 3.0.0 (20220226.1711)
 -->
<!-- Title: dependencies Pages: 1 -->
<svg width="220pt" height="247pt"
 viewBox="0.00 0.00 220.00 246.80" xmlns="http://www.w3.org/2000/svg" xmlns:xlink="http://www.w3.org/1999/xlink">
<g id="graph0" class="graph" transform="scale(1 1) rotate(0) translate(4 242.8)">
<title>dependencies</title>
<polygon fill="white" stroke="transparent" points="-4,4 -4,-242.8 216,-242.8 216,4 -4,4"/>
<text text-anchor="middle" x="106" y="-8.2" font-family="sans-serif" font-size="14.00">dependencies</text>
<g id="clust1" class="cluster">
<title>cluster_PrivateFilesModule</title>
<polygon fill="none" stroke="black" stroke-dasharray="1,5" points="8,-32.8 8,-230.8 204,-230.8 204,-32.8 8,-32.8"/>
</g>
<g id="clust4" class="cluster">
<title>cluster_PrivateFilesModule_exports</title>
<polygon fill="none" stroke="black" points="37,-170.8 37,-222.8 175,-222.8 175,-170.8 37,-170.8"/>
</g>
<g id="clust6" class="cluster">
<title>cluster_PrivateFilesModule_providers</title>
<polygon fill="none" stroke="black" points="16,-40.8 16,-92.8 196,-92.8 196,-40.8 16,-40.8"/>
</g>
<!-- PrivateFileService  -->
<g id="node1" class="node">
<title>PrivateFileService </title>
<polygon fill="#fb8072" stroke="black" points="167.41,-214.8 44.59,-214.8 44.59,-178.8 167.41,-178.8 167.41,-214.8"/>
<text text-anchor="middle" x="106" y="-192.6" font-family="Times,serif" font-size="14.00">PrivateFileService </text>
</g>
<!-- PrivateFilesModule -->
<g id="node2" class="node">
<title>PrivateFilesModule</title>
<polygon fill="#8dd3c7" stroke="black" points="169.44,-149.8 166.44,-153.8 145.44,-153.8 142.44,-149.8 42.56,-149.8 42.56,-113.8 169.44,-113.8 169.44,-149.8"/>
<text text-anchor="middle" x="106" y="-127.6" font-family="Times,serif" font-size="14.00">PrivateFilesModule</text>
</g>
<!-- PrivateFilesModule&#45;&gt;PrivateFileService  -->
<g id="edge1" class="edge">
<title>PrivateFilesModule&#45;&gt;PrivateFileService </title>
<path fill="none" stroke="black" stroke-dasharray="5,2" d="M106,-149.91C106,-149.91 106,-168.79 106,-168.79"/>
<polygon fill="black" stroke="black" points="102.5,-168.79 106,-178.79 109.5,-168.79 102.5,-168.79"/>
</g>
<!-- PrivateFileService -->
<g id="node3" class="node">
<title>PrivateFileService</title>
<ellipse fill="#fdb462" stroke="black" cx="106" cy="-66.8" rx="82.24" ry="18"/>
<text text-anchor="middle" x="106" y="-62.6" font-family="Times,serif" font-size="14.00">PrivateFileService</text>
</g>
<!-- PrivateFileService&#45;&gt;PrivateFilesModule -->
<g id="edge2" class="edge">
<title>PrivateFileService&#45;&gt;PrivateFilesModule</title>
<path fill="none" stroke="black" d="M106,-84.91C106,-84.91 106,-103.79 106,-103.79"/>
<polygon fill="black" stroke="black" points="102.5,-103.79 106,-113.79 109.5,-103.79 102.5,-103.79"/>
</g>
</g>
</svg>
