<?xml version="1.0" encoding="UTF-8" standalone="no"?>
<!DOCTYPE svg PUBLIC "-//W3C//DTD SVG 1.1//EN"
 "http://www.w3.org/Graphics/SVG/1.1/DTD/svg11.dtd">
<!-- Generated by graphviz version 3.0.0 (20220226.1711)
 -->
<!-- Title: dependencies Pages: 1 -->
<svg width="533pt" height="247pt"
 viewBox="0.00 0.00 533.00 246.80" xmlns="http://www.w3.org/2000/svg" xmlns:xlink="http://www.w3.org/1999/xlink">
<g id="graph0" class="graph" transform="scale(1 1) rotate(0) translate(4 242.8)">
<title>dependencies</title>
<polygon fill="white" stroke="transparent" points="-4,4 -4,-242.8 529,-242.8 529,4 -4,4"/>
<text text-anchor="middle" x="262.5" y="-8.2" font-family="sans-serif" font-size="14.00">dependencies</text>
<g id="clust1" class="cluster">
<title>cluster_UserModule</title>
<polygon fill="none" stroke="black" stroke-dasharray="1,5" points="8,-32.8 8,-230.8 517,-230.8 517,-32.8 8,-32.8"/>
</g>
<g id="clust4" class="cluster">
<title>cluster_UserModule_exports</title>
<polygon fill="none" stroke="black" points="222,-170.8 222,-222.8 326,-222.8 326,-170.8 222,-170.8"/>
</g>
<g id="clust3" class="cluster">
<title>cluster_UserModule_imports</title>
<polygon fill="none" stroke="black" points="156,-40.8 156,-92.8 509,-92.8 509,-40.8 156,-40.8"/>
</g>
<g id="clust6" class="cluster">
<title>cluster_UserModule_providers</title>
<polygon fill="none" stroke="black" points="16,-40.8 16,-92.8 148,-92.8 148,-40.8 16,-40.8"/>
</g>
<!-- FileModule -->
<g id="node1" class="node">
<title>FileModule</title>
<polygon fill="#8dd3c7" stroke="black" points="500.83,-84.8 497.83,-88.8 476.83,-88.8 473.83,-84.8 419.17,-84.8 419.17,-48.8 500.83,-48.8 500.83,-84.8"/>
<text text-anchor="middle" x="460" y="-62.6" font-family="Times,serif" font-size="14.00">FileModule</text>
</g>
<!-- UserModule -->
<g id="node4" class="node">
<title>UserModule</title>
<polygon fill="#8dd3c7" stroke="black" points="316.99,-149.8 313.99,-153.8 292.99,-153.8 289.99,-149.8 231.01,-149.8 231.01,-113.8 316.99,-113.8 316.99,-149.8"/>
<text text-anchor="middle" x="274" y="-127.6" font-family="Times,serif" font-size="14.00">UserModule</text>
</g>
<!-- FileModule&#45;&gt;UserModule -->
<g id="edge1" class="edge">
<title>FileModule&#45;&gt;UserModule</title>
<path fill="none" stroke="black" d="M460,-84.91C460,-104.14 460,-131.8 460,-131.8 460,-131.8 327.14,-131.8 327.14,-131.8"/>
<polygon fill="black" stroke="black" points="327.14,-128.3 317.14,-131.8 327.14,-135.3 327.14,-128.3"/>
</g>
<!-- PrivateFilesModule -->
<g id="node2" class="node">
<title>PrivateFilesModule</title>
<polygon fill="#8dd3c7" stroke="black" points="401.44,-84.8 398.44,-88.8 377.44,-88.8 374.44,-84.8 274.56,-84.8 274.56,-48.8 401.44,-48.8 401.44,-84.8"/>
<text text-anchor="middle" x="338" y="-62.6" font-family="Times,serif" font-size="14.00">PrivateFilesModule</text>
</g>
<!-- PrivateFilesModule&#45;&gt;UserModule -->
<g id="edge2" class="edge">
<title>PrivateFilesModule&#45;&gt;UserModule</title>
<path fill="none" stroke="black" d="M295.89,-84.91C295.89,-84.91 295.89,-103.79 295.89,-103.79"/>
<polygon fill="black" stroke="black" points="292.39,-103.79 295.89,-113.79 299.39,-103.79 292.39,-103.79"/>
</g>
<!-- StripeModule -->
<g id="node3" class="node">
<title>StripeModule</title>
<polygon fill="#8dd3c7" stroke="black" points="256.49,-84.8 253.49,-88.8 232.49,-88.8 229.49,-84.8 163.51,-84.8 163.51,-48.8 256.49,-48.8 256.49,-84.8"/>
<text text-anchor="middle" x="210" y="-62.6" font-family="Times,serif" font-size="14.00">StripeModule</text>
</g>
<!-- StripeModule&#45;&gt;UserModule -->
<g id="edge3" class="edge">
<title>StripeModule&#45;&gt;UserModule</title>
<path fill="none" stroke="black" d="M243.75,-84.91C243.75,-84.91 243.75,-103.79 243.75,-103.79"/>
<polygon fill="black" stroke="black" points="240.25,-103.79 243.75,-113.79 247.25,-103.79 240.25,-103.79"/>
</g>
<!-- UserService  -->
<g id="node5" class="node">
<title>UserService </title>
<polygon fill="#fb8072" stroke="black" points="317.91,-214.8 230.09,-214.8 230.09,-178.8 317.91,-178.8 317.91,-214.8"/>
<text text-anchor="middle" x="274" y="-192.6" font-family="Times,serif" font-size="14.00">UserService </text>
</g>
<!-- UserModule&#45;&gt;UserService  -->
<g id="edge4" class="edge">
<title>UserModule&#45;&gt;UserService </title>
<path fill="none" stroke="black" stroke-dasharray="5,2" d="M274,-149.91C274,-149.91 274,-168.79 274,-168.79"/>
<polygon fill="black" stroke="black" points="270.5,-168.79 274,-178.79 277.5,-168.79 270.5,-168.79"/>
</g>
<!-- UserService -->
<g id="node6" class="node">
<title>UserService</title>
<ellipse fill="#fdb462" stroke="black" cx="82" cy="-66.8" rx="58.46" ry="18"/>
<text text-anchor="middle" x="82" y="-62.6" font-family="Times,serif" font-size="14.00">UserService</text>
</g>
<!-- UserService&#45;&gt;UserModule -->
<g id="edge5" class="edge">
<title>UserService&#45;&gt;UserModule</title>
<path fill="none" stroke="black" d="M82,-84.91C82,-104.14 82,-131.8 82,-131.8 82,-131.8 220.91,-131.8 220.91,-131.8"/>
<polygon fill="black" stroke="black" points="220.91,-135.3 230.91,-131.8 220.91,-128.3 220.91,-135.3"/>
</g>
</g>
</svg>
