<?xml version="1.0" encoding="UTF-8" standalone="no"?>
<!DOCTYPE svg PUBLIC "-//W3C//DTD SVG 1.1//EN"
 "http://www.w3.org/Graphics/SVG/1.1/DTD/svg11.dtd">
<!-- Generated by graphviz version 3.0.0 (20220226.1711)
 -->
<!-- Title: dependencies Pages: 1 -->
<svg width="176pt" height="174pt"
 viewBox="0.00 0.00 176.00 173.80" xmlns="http://www.w3.org/2000/svg" xmlns:xlink="http://www.w3.org/1999/xlink">
<g id="graph0" class="graph" transform="scale(1 1) rotate(0) translate(4 169.8)">
<title>dependencies</title>
<polygon fill="white" stroke="transparent" points="-4,4 -4,-169.8 172,-169.8 172,4 -4,4"/>
<text text-anchor="middle" x="84" y="-8.2" font-family="sans-serif" font-size="14.00">dependencies</text>
<g id="clust1" class="cluster">
<title>cluster_SubscriptionsModule</title>
<polygon fill="none" stroke="black" stroke-dasharray="1,5" points="8,-32.8 8,-157.8 160,-157.8 160,-32.8 8,-32.8"/>
</g>
<g id="clust3" class="cluster">
<title>cluster_SubscriptionsModule_imports</title>
<polygon fill="none" stroke="black" points="30,-40.8 30,-92.8 138,-92.8 138,-40.8 30,-40.8"/>
</g>
<!-- StripeModule -->
<g id="node1" class="node">
<title>StripeModule</title>
<polygon fill="#8dd3c7" stroke="black" points="130.49,-84.8 127.49,-88.8 106.49,-88.8 103.49,-84.8 37.51,-84.8 37.51,-48.8 130.49,-48.8 130.49,-84.8"/>
<text text-anchor="middle" x="84" y="-62.6" font-family="Times,serif" font-size="14.00">StripeModule</text>
</g>
<!-- SubscriptionsModule -->
<g id="node2" class="node">
<title>SubscriptionsModule</title>
<polygon fill="#8dd3c7" stroke="black" points="151.78,-149.8 148.78,-153.8 127.78,-153.8 124.78,-149.8 16.22,-149.8 16.22,-113.8 151.78,-113.8 151.78,-149.8"/>
<text text-anchor="middle" x="84" y="-127.6" font-family="Times,serif" font-size="14.00">SubscriptionsModule</text>
</g>
<!-- StripeModule&#45;&gt;SubscriptionsModule -->
<g id="edge1" class="edge">
<title>StripeModule&#45;&gt;SubscriptionsModule</title>
<path fill="none" stroke="black" d="M84,-84.91C84,-84.91 84,-103.79 84,-103.79"/>
<polygon fill="black" stroke="black" points="80.5,-103.79 84,-113.79 87.5,-103.79 80.5,-103.79"/>
</g>
</g>
</svg>
