<?xml version="1.0" encoding="UTF-8" standalone="no"?>
<!DOCTYPE svg PUBLIC "-//W3C//DTD SVG 1.1//EN"
 "http://www.w3.org/Graphics/SVG/1.1/DTD/svg11.dtd">
<!-- Generated by graphviz version 3.0.0 (20220226.1711)
 -->
<!-- Title: dependencies Pages: 1 -->
<svg width="280pt" height="247pt"
 viewBox="0.00 0.00 280.00 246.80" xmlns="http://www.w3.org/2000/svg" xmlns:xlink="http://www.w3.org/1999/xlink">
<g id="graph0" class="graph" transform="scale(1 1) rotate(0) translate(4 242.8)">
<title>dependencies</title>
<polygon fill="white" stroke="transparent" points="-4,4 -4,-242.8 276,-242.8 276,4 -4,4"/>
<text text-anchor="middle" x="136" y="-8.2" font-family="sans-serif" font-size="14.00">dependencies</text>
<g id="clust1" class="cluster">
<title>cluster_SmsModule</title>
<polygon fill="none" stroke="black" stroke-dasharray="1,5" points="8,-32.8 8,-230.8 264,-230.8 264,-32.8 8,-32.8"/>
</g>
<g id="clust4" class="cluster">
<title>cluster_SmsModule_exports</title>
<polygon fill="none" stroke="black" points="92,-170.8 92,-222.8 194,-222.8 194,-170.8 92,-170.8"/>
</g>
<g id="clust3" class="cluster">
<title>cluster_SmsModule_imports</title>
<polygon fill="none" stroke="black" points="154,-40.8 154,-92.8 256,-92.8 256,-40.8 154,-40.8"/>
</g>
<g id="clust6" class="cluster">
<title>cluster_SmsModule_providers</title>
<polygon fill="none" stroke="black" points="16,-40.8 16,-92.8 146,-92.8 146,-40.8 16,-40.8"/>
</g>
<!-- UserModule -->
<g id="node1" class="node">
<title>UserModule</title>
<polygon fill="#8dd3c7" stroke="black" points="247.99,-84.8 244.99,-88.8 223.99,-88.8 220.99,-84.8 162.01,-84.8 162.01,-48.8 247.99,-48.8 247.99,-84.8"/>
<text text-anchor="middle" x="205" y="-62.6" font-family="Times,serif" font-size="14.00">UserModule</text>
</g>
<!-- SmsModule -->
<g id="node2" class="node">
<title>SmsModule</title>
<polygon fill="#8dd3c7" stroke="black" points="184.68,-149.8 181.68,-153.8 160.68,-153.8 157.68,-149.8 101.32,-149.8 101.32,-113.8 184.68,-113.8 184.68,-149.8"/>
<text text-anchor="middle" x="143" y="-127.6" font-family="Times,serif" font-size="14.00">SmsModule</text>
</g>
<!-- UserModule&#45;&gt;SmsModule -->
<g id="edge1" class="edge">
<title>UserModule&#45;&gt;SmsModule</title>
<path fill="none" stroke="black" d="M173.42,-84.91C173.42,-84.91 173.42,-103.79 173.42,-103.79"/>
<polygon fill="black" stroke="black" points="169.92,-103.79 173.42,-113.79 176.92,-103.79 169.92,-103.79"/>
</g>
<!-- SmsService  -->
<g id="node3" class="node">
<title>SmsService </title>
<polygon fill="#fb8072" stroke="black" points="185.6,-214.8 100.4,-214.8 100.4,-178.8 185.6,-178.8 185.6,-214.8"/>
<text text-anchor="middle" x="143" y="-192.6" font-family="Times,serif" font-size="14.00">SmsService </text>
</g>
<!-- SmsModule&#45;&gt;SmsService  -->
<g id="edge2" class="edge">
<title>SmsModule&#45;&gt;SmsService </title>
<path fill="none" stroke="black" stroke-dasharray="5,2" d="M143,-149.91C143,-149.91 143,-168.79 143,-168.79"/>
<polygon fill="black" stroke="black" points="139.5,-168.79 143,-178.79 146.5,-168.79 139.5,-168.79"/>
</g>
<!-- SmsService -->
<g id="node4" class="node">
<title>SmsService</title>
<ellipse fill="#fdb462" stroke="black" cx="81" cy="-66.8" rx="56.77" ry="18"/>
<text text-anchor="middle" x="81" y="-62.6" font-family="Times,serif" font-size="14.00">SmsService</text>
</g>
<!-- SmsService&#45;&gt;SmsModule -->
<g id="edge3" class="edge">
<title>SmsService&#45;&gt;SmsModule</title>
<path fill="none" stroke="black" d="M119.4,-80.27C119.4,-80.27 119.4,-103.66 119.4,-103.66"/>
<polygon fill="black" stroke="black" points="115.9,-103.66 119.4,-113.66 122.9,-103.66 115.9,-103.66"/>
</g>
</g>
</svg>
