<?xml version="1.0" encoding="UTF-8" standalone="no"?>
<!DOCTYPE svg PUBLIC "-//W3C//DTD SVG 1.1//EN"
 "http://www.w3.org/Graphics/SVG/1.1/DTD/svg11.dtd">
<!-- Generated by graphviz version 3.0.0 (20220226.1711)
 -->
<!-- Title: dependencies Pages: 1 -->
<svg width="506pt" height="247pt"
 viewBox="0.00 0.00 506.00 246.80" xmlns="http://www.w3.org/2000/svg" xmlns:xlink="http://www.w3.org/1999/xlink">
<g id="graph0" class="graph" transform="scale(1 1) rotate(0) translate(4 242.8)">
<title>dependencies</title>
<polygon fill="white" stroke="transparent" points="-4,4 -4,-242.8 502,-242.8 502,4 -4,4"/>
<text text-anchor="middle" x="249" y="-8.2" font-family="sans-serif" font-size="14.00">dependencies</text>
<g id="clust1" class="cluster">
<title>cluster_EmailConfirmationModule</title>
<polygon fill="none" stroke="black" stroke-dasharray="1,5" points="8,-32.8 8,-230.8 490,-230.8 490,-32.8 8,-32.8"/>
</g>
<g id="clust4" class="cluster">
<title>cluster_EmailConfirmationModule_exports</title>
<polygon fill="none" stroke="black" points="228,-170.8 228,-222.8 414,-222.8 414,-170.8 228,-170.8"/>
</g>
<g id="clust3" class="cluster">
<title>cluster_EmailConfirmationModule_imports</title>
<polygon fill="none" stroke="black" points="270,-40.8 270,-92.8 482,-92.8 482,-40.8 270,-40.8"/>
</g>
<g id="clust6" class="cluster">
<title>cluster_EmailConfirmationModule_providers</title>
<polygon fill="none" stroke="black" points="16,-40.8 16,-92.8 262,-92.8 262,-40.8 16,-40.8"/>
</g>
<!-- EmailModule -->
<g id="node1" class="node">
<title>EmailModule</title>
<polygon fill="#8dd3c7" stroke="black" points="474.49,-84.8 471.49,-88.8 450.49,-88.8 447.49,-84.8 381.51,-84.8 381.51,-48.8 474.49,-48.8 474.49,-84.8"/>
<text text-anchor="middle" x="428" y="-62.6" font-family="Times,serif" font-size="14.00">EmailModule</text>
</g>
<!-- EmailConfirmationModule -->
<g id="node3" class="node">
<title>EmailConfirmationModule</title>
<polygon fill="#8dd3c7" stroke="black" points="405.42,-149.8 402.42,-153.8 381.42,-153.8 378.42,-149.8 236.58,-149.8 236.58,-113.8 405.42,-113.8 405.42,-149.8"/>
<text text-anchor="middle" x="321" y="-127.6" font-family="Times,serif" font-size="14.00">EmailConfirmationModule</text>
</g>
<!-- EmailModule&#45;&gt;EmailConfirmationModule -->
<g id="edge1" class="edge">
<title>EmailModule&#45;&gt;EmailConfirmationModule</title>
<path fill="none" stroke="black" d="M393.36,-84.91C393.36,-84.91 393.36,-103.79 393.36,-103.79"/>
<polygon fill="black" stroke="black" points="389.86,-103.79 393.36,-113.79 396.86,-103.79 389.86,-103.79"/>
</g>
<!-- UserModule -->
<g id="node2" class="node">
<title>UserModule</title>
<polygon fill="#8dd3c7" stroke="black" points="363.99,-84.8 360.99,-88.8 339.99,-88.8 336.99,-84.8 278.01,-84.8 278.01,-48.8 363.99,-48.8 363.99,-84.8"/>
<text text-anchor="middle" x="321" y="-62.6" font-family="Times,serif" font-size="14.00">UserModule</text>
</g>
<!-- UserModule&#45;&gt;EmailConfirmationModule -->
<g id="edge2" class="edge">
<title>UserModule&#45;&gt;EmailConfirmationModule</title>
<path fill="none" stroke="black" d="M321,-84.91C321,-84.91 321,-103.79 321,-103.79"/>
<polygon fill="black" stroke="black" points="317.5,-103.79 321,-113.79 324.5,-103.79 317.5,-103.79"/>
</g>
<!-- EmailConfirmationService  -->
<g id="node4" class="node">
<title>EmailConfirmationService </title>
<polygon fill="#fb8072" stroke="black" points="406.35,-214.8 235.65,-214.8 235.65,-178.8 406.35,-178.8 406.35,-214.8"/>
<text text-anchor="middle" x="321" y="-192.6" font-family="Times,serif" font-size="14.00">EmailConfirmationService </text>
</g>
<!-- EmailConfirmationModule&#45;&gt;EmailConfirmationService  -->
<g id="edge3" class="edge">
<title>EmailConfirmationModule&#45;&gt;EmailConfirmationService </title>
<path fill="none" stroke="black" stroke-dasharray="5,2" d="M321,-149.91C321,-149.91 321,-168.79 321,-168.79"/>
<polygon fill="black" stroke="black" points="317.5,-168.79 321,-178.79 324.5,-168.79 317.5,-168.79"/>
</g>
<!-- EmailConfirmationService -->
<g id="node5" class="node">
<title>EmailConfirmationService</title>
<ellipse fill="#fdb462" stroke="black" cx="139" cy="-66.8" rx="115.18" ry="18"/>
<text text-anchor="middle" x="139" y="-62.6" font-family="Times,serif" font-size="14.00">EmailConfirmationService</text>
</g>
<!-- EmailConfirmationService&#45;&gt;EmailConfirmationModule -->
<g id="edge4" class="edge">
<title>EmailConfirmationService&#45;&gt;EmailConfirmationModule</title>
<path fill="none" stroke="black" d="M245.44,-73.76C245.44,-73.76 245.44,-103.61 245.44,-103.61"/>
<polygon fill="black" stroke="black" points="241.94,-103.61 245.44,-113.61 248.94,-103.61 241.94,-103.61"/>
</g>
</g>
</svg>
