<?xml version="1.0" encoding="UTF-8" standalone="no"?>
<!DOCTYPE svg PUBLIC "-//W3C//DTD SVG 1.1//EN"
 "http://www.w3.org/Graphics/SVG/1.1/DTD/svg11.dtd">
<!-- Generated by graphviz version 3.0.0 (20220226.1711)
 -->
<!-- Title: dependencies Pages: 1 -->
<svg width="3045pt" height="174pt"
 viewBox="0.00 0.00 3045.00 173.80" xmlns="http://www.w3.org/2000/svg" xmlns:xlink="http://www.w3.org/1999/xlink">
<g id="graph0" class="graph" transform="scale(1 1) rotate(0) translate(4 169.8)">
<title>dependencies</title>
<polygon fill="white" stroke="transparent" points="-4,4 -4,-169.8 3041,-169.8 3041,4 -4,4"/>
<text text-anchor="middle" x="1518.5" y="-8.2" font-family="sans-serif" font-size="14.00">dependencies</text>
<g id="clust1" class="cluster">
<title>cluster_AppModule</title>
<polygon fill="none" stroke="black" stroke-dasharray="1,5" points="8,-32.8 8,-157.8 3029,-157.8 3029,-32.8 8,-32.8"/>
</g>
<g id="clust3" class="cluster">
<title>cluster_AppModule_imports</title>
<polygon fill="none" stroke="black" points="16,-40.8 16,-92.8 3021,-92.8 3021,-40.8 16,-40.8"/>
</g>
<!-- AuthenticationModule -->
<g id="node1" class="node">
<title>AuthenticationModule</title>
<polygon fill="#8dd3c7" stroke="black" points="3013.25,-84.8 3010.25,-88.8 2989.25,-88.8 2986.25,-84.8 2870.75,-84.8 2870.75,-48.8 3013.25,-48.8 3013.25,-84.8"/>
<text text-anchor="middle" x="2942" y="-62.6" font-family="Times,serif" font-size="14.00">AuthenticationModule</text>
</g>
<!-- AppModule -->
<g id="node23" class="node">
<title>AppModule</title>
<polygon fill="#8dd3c7" stroke="black" points="1494.66,-149.8 1491.66,-153.8 1470.66,-153.8 1467.66,-149.8 1411.34,-149.8 1411.34,-113.8 1494.66,-113.8 1494.66,-149.8"/>
<text text-anchor="middle" x="1453" y="-127.6" font-family="Times,serif" font-size="14.00">AppModule</text>
</g>
<!-- AuthenticationModule&#45;&gt;AppModule -->
<g id="edge1" class="edge">
<title>AuthenticationModule&#45;&gt;AppModule</title>
<path fill="none" stroke="black" d="M2942,-84.95C2942,-108.56 2942,-146.8 2942,-146.8 2942,-146.8 1504.77,-146.8 1504.77,-146.8"/>
<polygon fill="black" stroke="black" points="1504.77,-143.3 1494.77,-146.8 1504.77,-150.3 1504.77,-143.3"/>
</g>
<!-- CategoryModule -->
<g id="node2" class="node">
<title>CategoryModule</title>
<polygon fill="#8dd3c7" stroke="black" points="2852.37,-84.8 2849.37,-88.8 2828.37,-88.8 2825.37,-84.8 2741.63,-84.8 2741.63,-48.8 2852.37,-48.8 2852.37,-84.8"/>
<text text-anchor="middle" x="2797" y="-62.6" font-family="Times,serif" font-size="14.00">CategoryModule</text>
</g>
<!-- CategoryModule&#45;&gt;AppModule -->
<g id="edge2" class="edge">
<title>CategoryModule&#45;&gt;AppModule</title>
<path fill="none" stroke="black" d="M2797,-85.05C2797,-107.82 2797,-143.8 2797,-143.8 2797,-143.8 1504.7,-143.8 1504.7,-143.8"/>
<polygon fill="black" stroke="black" points="1504.7,-140.3 1494.7,-143.8 1504.7,-147.3 1504.7,-140.3"/>
</g>
<!-- ChargeModule -->
<g id="node3" class="node">
<title>ChargeModule</title>
<polygon fill="#8dd3c7" stroke="black" points="2723.98,-84.8 2720.98,-88.8 2699.98,-88.8 2696.98,-84.8 2624.02,-84.8 2624.02,-48.8 2723.98,-48.8 2723.98,-84.8"/>
<text text-anchor="middle" x="2674" y="-62.6" font-family="Times,serif" font-size="14.00">ChargeModule</text>
</g>
<!-- ChargeModule&#45;&gt;AppModule -->
<g id="edge3" class="edge">
<title>ChargeModule&#45;&gt;AppModule</title>
<path fill="none" stroke="black" d="M2674,-85.09C2674,-107.01 2674,-140.8 2674,-140.8 2674,-140.8 1504.68,-140.8 1504.68,-140.8"/>
<polygon fill="black" stroke="black" points="1504.68,-137.3 1494.68,-140.8 1504.68,-144.3 1504.68,-137.3"/>
</g>
<!-- ChatModule -->
<g id="node4" class="node">
<title>ChatModule</title>
<polygon fill="#8dd3c7" stroke="black" points="2605.99,-84.8 2602.99,-88.8 2581.99,-88.8 2578.99,-84.8 2520.01,-84.8 2520.01,-48.8 2605.99,-48.8 2605.99,-84.8"/>
<text text-anchor="middle" x="2563" y="-62.6" font-family="Times,serif" font-size="14.00">ChatModule</text>
</g>
<!-- ChatModule&#45;&gt;AppModule -->
<g id="edge4" class="edge">
<title>ChatModule&#45;&gt;AppModule</title>
<path fill="none" stroke="black" d="M2563,-84.83C2563,-105.57 2563,-136.8 2563,-136.8 2563,-136.8 1504.82,-136.8 1504.82,-136.8"/>
<polygon fill="black" stroke="black" points="1504.82,-133.3 1494.82,-136.8 1504.82,-140.3 1504.82,-133.3"/>
</g>
<!-- CreditCardsModule -->
<g id="node5" class="node">
<title>CreditCardsModule</title>
<polygon fill="#8dd3c7" stroke="black" points="2501.71,-84.8 2498.71,-88.8 2477.71,-88.8 2474.71,-84.8 2374.29,-84.8 2374.29,-48.8 2501.71,-48.8 2501.71,-84.8"/>
<text text-anchor="middle" x="2438" y="-62.6" font-family="Times,serif" font-size="14.00">CreditCardsModule</text>
</g>
<!-- CreditCardsModule&#45;&gt;AppModule -->
<g id="edge5" class="edge">
<title>CreditCardsModule&#45;&gt;AppModule</title>
<path fill="none" stroke="black" d="M2438,-85.11C2438,-104.95 2438,-133.8 2438,-133.8 2438,-133.8 1504.7,-133.8 1504.7,-133.8"/>
<polygon fill="black" stroke="black" points="1504.7,-130.3 1494.7,-133.8 1504.7,-137.3 1504.7,-130.3"/>
</g>
<!-- DatabaseModule -->
<g id="node6" class="node">
<title>DatabaseModule</title>
<polygon fill="#8dd3c7" stroke="black" points="2356.36,-84.8 2353.36,-88.8 2332.36,-88.8 2329.36,-84.8 2245.64,-84.8 2245.64,-48.8 2356.36,-48.8 2356.36,-84.8"/>
<text text-anchor="middle" x="2301" y="-62.6" font-family="Times,serif" font-size="14.00">DatabaseModule</text>
</g>
<!-- DatabaseModule&#45;&gt;AppModule -->
<g id="edge6" class="edge">
<title>DatabaseModule&#45;&gt;AppModule</title>
<path fill="none" stroke="black" d="M2301,-84.97C2301,-103.89 2301,-130.8 2301,-130.8 2301,-130.8 1504.76,-130.8 1504.76,-130.8"/>
<polygon fill="black" stroke="black" points="1504.76,-127.3 1494.76,-130.8 1504.76,-134.3 1504.76,-127.3"/>
</g>
<!-- EmailConfirmationModule -->
<g id="node7" class="node">
<title>EmailConfirmationModule</title>
<polygon fill="#8dd3c7" stroke="black" points="2227.42,-84.8 2224.42,-88.8 2203.42,-88.8 2200.42,-84.8 2058.58,-84.8 2058.58,-48.8 2227.42,-48.8 2227.42,-84.8"/>
<text text-anchor="middle" x="2143" y="-62.6" font-family="Times,serif" font-size="14.00">EmailConfirmationModule</text>
</g>
<!-- EmailConfirmationModule&#45;&gt;AppModule -->
<g id="edge7" class="edge">
<title>EmailConfirmationModule&#45;&gt;AppModule</title>
<path fill="none" stroke="black" d="M2143,-85.1C2143,-103.07 2143,-127.8 2143,-127.8 2143,-127.8 1504.87,-127.8 1504.87,-127.8"/>
<polygon fill="black" stroke="black" points="1504.87,-124.3 1494.87,-127.8 1504.87,-131.3 1504.87,-124.3"/>
</g>
<!-- EmailSchedulingModule -->
<g id="node8" class="node">
<title>EmailSchedulingModule</title>
<polygon fill="#8dd3c7" stroke="black" points="2040.98,-84.8 2037.98,-88.8 2016.98,-88.8 2013.98,-84.8 1885.02,-84.8 1885.02,-48.8 2040.98,-48.8 2040.98,-84.8"/>
<text text-anchor="middle" x="1963" y="-62.6" font-family="Times,serif" font-size="14.00">EmailSchedulingModule</text>
</g>
<!-- EmailSchedulingModule&#45;&gt;AppModule -->
<g id="edge8" class="edge">
<title>EmailSchedulingModule&#45;&gt;AppModule</title>
<path fill="none" stroke="black" d="M1963,-84.84C1963,-101.53 1963,-123.8 1963,-123.8 1963,-123.8 1504.74,-123.8 1504.74,-123.8"/>
<polygon fill="black" stroke="black" points="1504.74,-120.3 1494.74,-123.8 1504.74,-127.3 1504.74,-120.3"/>
</g>
<!-- FileModule -->
<g id="node9" class="node">
<title>FileModule</title>
<polygon fill="#8dd3c7" stroke="black" points="1866.83,-84.8 1863.83,-88.8 1842.83,-88.8 1839.83,-84.8 1785.17,-84.8 1785.17,-48.8 1866.83,-48.8 1866.83,-84.8"/>
<text text-anchor="middle" x="1826" y="-62.6" font-family="Times,serif" font-size="14.00">FileModule</text>
</g>
<!-- FileModule&#45;&gt;AppModule -->
<g id="edge9" class="edge">
<title>FileModule&#45;&gt;AppModule</title>
<path fill="none" stroke="black" d="M1826,-85.08C1826,-100.75 1826,-120.8 1826,-120.8 1826,-120.8 1504.7,-120.8 1504.7,-120.8"/>
<polygon fill="black" stroke="black" points="1504.7,-117.3 1494.7,-120.8 1504.7,-124.3 1504.7,-117.3"/>
</g>
<!-- GoogleAuthenticationModule -->
<g id="node10" class="node">
<title>GoogleAuthenticationModule</title>
<polygon fill="#8dd3c7" stroke="black" points="1766.97,-84.8 1763.97,-88.8 1742.97,-88.8 1739.97,-84.8 1583.03,-84.8 1583.03,-48.8 1766.97,-48.8 1766.97,-84.8"/>
<text text-anchor="middle" x="1675" y="-62.6" font-family="Times,serif" font-size="14.00">GoogleAuthenticationModule</text>
</g>
<!-- GoogleAuthenticationModule&#45;&gt;AppModule -->
<g id="edge10" class="edge">
<title>GoogleAuthenticationModule&#45;&gt;AppModule</title>
<path fill="none" stroke="black" d="M1675,-84.92C1675,-99.58 1675,-117.8 1675,-117.8 1675,-117.8 1504.76,-117.8 1504.76,-117.8"/>
<polygon fill="black" stroke="black" points="1504.76,-114.3 1494.76,-117.8 1504.76,-121.3 1504.76,-114.3"/>
</g>
<!-- LoggerModule -->
<g id="node11" class="node">
<title>LoggerModule</title>
<polygon fill="#8dd3c7" stroke="black" points="1564.98,-84.8 1561.98,-88.8 1540.98,-88.8 1537.98,-84.8 1465.02,-84.8 1465.02,-48.8 1564.98,-48.8 1564.98,-84.8"/>
<text text-anchor="middle" x="1515" y="-62.6" font-family="Times,serif" font-size="14.00">LoggerModule</text>
</g>
<!-- LoggerModule&#45;&gt;AppModule -->
<g id="edge11" class="edge">
<title>LoggerModule&#45;&gt;AppModule</title>
<path fill="none" stroke="black" d="M1479.92,-84.91C1479.92,-84.91 1479.92,-103.79 1479.92,-103.79"/>
<polygon fill="black" stroke="black" points="1476.42,-103.79 1479.92,-113.79 1483.42,-103.79 1476.42,-103.79"/>
</g>
<!-- OptimizeModule -->
<g id="node12" class="node">
<title>OptimizeModule</title>
<polygon fill="#8dd3c7" stroke="black" points="1446.65,-84.8 1443.65,-88.8 1422.65,-88.8 1419.65,-84.8 1335.35,-84.8 1335.35,-48.8 1446.65,-48.8 1446.65,-84.8"/>
<text text-anchor="middle" x="1391" y="-62.6" font-family="Times,serif" font-size="14.00">OptimizeModule</text>
</g>
<!-- OptimizeModule&#45;&gt;AppModule -->
<g id="edge12" class="edge">
<title>OptimizeModule&#45;&gt;AppModule</title>
<path fill="none" stroke="black" d="M1429,-84.91C1429,-84.91 1429,-103.79 1429,-103.79"/>
<polygon fill="black" stroke="black" points="1425.5,-103.79 1429,-113.79 1432.5,-103.79 1425.5,-103.79"/>
</g>
<!-- PostsModule -->
<g id="node13" class="node">
<title>PostsModule</title>
<polygon fill="#8dd3c7" stroke="black" points="1317.62,-84.8 1314.62,-88.8 1293.62,-88.8 1290.62,-84.8 1228.38,-84.8 1228.38,-48.8 1317.62,-48.8 1317.62,-84.8"/>
<text text-anchor="middle" x="1273" y="-62.6" font-family="Times,serif" font-size="14.00">PostsModule</text>
</g>
<!-- PostsModule&#45;&gt;AppModule -->
<g id="edge13" class="edge">
<title>PostsModule&#45;&gt;AppModule</title>
<path fill="none" stroke="black" d="M1273,-84.92C1273,-99.58 1273,-117.8 1273,-117.8 1273,-117.8 1401.25,-117.8 1401.25,-117.8"/>
<polygon fill="black" stroke="black" points="1401.25,-121.3 1411.25,-117.8 1401.25,-114.3 1401.25,-121.3"/>
</g>
<!-- PrivateFilesModule -->
<g id="node14" class="node">
<title>PrivateFilesModule</title>
<polygon fill="#8dd3c7" stroke="black" points="1210.44,-84.8 1207.44,-88.8 1186.44,-88.8 1183.44,-84.8 1083.56,-84.8 1083.56,-48.8 1210.44,-48.8 1210.44,-84.8"/>
<text text-anchor="middle" x="1147" y="-62.6" font-family="Times,serif" font-size="14.00">PrivateFilesModule</text>
</g>
<!-- PrivateFilesModule&#45;&gt;AppModule -->
<g id="edge14" class="edge">
<title>PrivateFilesModule&#45;&gt;AppModule</title>
<path fill="none" stroke="black" d="M1147,-85.08C1147,-100.75 1147,-120.8 1147,-120.8 1147,-120.8 1401.09,-120.8 1401.09,-120.8"/>
<polygon fill="black" stroke="black" points="1401.09,-124.3 1411.09,-120.8 1401.09,-117.3 1401.09,-124.3"/>
</g>
<!-- ProductCategoriesModule -->
<g id="node15" class="node">
<title>ProductCategoriesModule</title>
<polygon fill="#8dd3c7" stroke="black" points="1065.47,-84.8 1062.47,-88.8 1041.47,-88.8 1038.47,-84.8 902.53,-84.8 902.53,-48.8 1065.47,-48.8 1065.47,-84.8"/>
<text text-anchor="middle" x="984" y="-62.6" font-family="Times,serif" font-size="14.00">ProductCategoriesModule</text>
</g>
<!-- ProductCategoriesModule&#45;&gt;AppModule -->
<g id="edge15" class="edge">
<title>ProductCategoriesModule&#45;&gt;AppModule</title>
<path fill="none" stroke="black" d="M984,-84.84C984,-101.53 984,-123.8 984,-123.8 984,-123.8 1400.97,-123.8 1400.97,-123.8"/>
<polygon fill="black" stroke="black" points="1400.97,-127.3 1410.97,-123.8 1400.97,-120.3 1400.97,-127.3"/>
</g>
<!-- ProductsModule -->
<g id="node16" class="node">
<title>ProductsModule</title>
<polygon fill="#8dd3c7" stroke="black" points="884.05,-84.8 881.05,-88.8 860.05,-88.8 857.05,-84.8 775.95,-84.8 775.95,-48.8 884.05,-48.8 884.05,-84.8"/>
<text text-anchor="middle" x="830" y="-62.6" font-family="Times,serif" font-size="14.00">ProductsModule</text>
</g>
<!-- ProductsModule&#45;&gt;AppModule -->
<g id="edge16" class="edge">
<title>ProductsModule&#45;&gt;AppModule</title>
<path fill="none" stroke="black" d="M830,-85.1C830,-103.07 830,-127.8 830,-127.8 830,-127.8 1401.16,-127.8 1401.16,-127.8"/>
<polygon fill="black" stroke="black" points="1401.16,-131.3 1411.16,-127.8 1401.16,-124.3 1401.16,-131.3"/>
</g>
<!-- SearchModule -->
<g id="node17" class="node">
<title>SearchModule</title>
<polygon fill="#8dd3c7" stroke="black" points="757.64,-84.8 754.64,-88.8 733.64,-88.8 730.64,-84.8 660.36,-84.8 660.36,-48.8 757.64,-48.8 757.64,-84.8"/>
<text text-anchor="middle" x="709" y="-62.6" font-family="Times,serif" font-size="14.00">SearchModule</text>
</g>
<!-- SearchModule&#45;&gt;AppModule -->
<g id="edge17" class="edge">
<title>SearchModule&#45;&gt;AppModule</title>
<path fill="none" stroke="black" d="M709,-84.97C709,-103.89 709,-130.8 709,-130.8 709,-130.8 1401.14,-130.8 1401.14,-130.8"/>
<polygon fill="black" stroke="black" points="1401.14,-134.3 1411.14,-130.8 1401.14,-127.3 1401.14,-134.3"/>
</g>
<!-- SmsModule -->
<g id="node18" class="node">
<title>SmsModule</title>
<polygon fill="#8dd3c7" stroke="black" points="641.68,-84.8 638.68,-88.8 617.68,-88.8 614.68,-84.8 558.32,-84.8 558.32,-48.8 641.68,-48.8 641.68,-84.8"/>
<text text-anchor="middle" x="600" y="-62.6" font-family="Times,serif" font-size="14.00">SmsModule</text>
</g>
<!-- SmsModule&#45;&gt;AppModule -->
<g id="edge18" class="edge">
<title>SmsModule&#45;&gt;AppModule</title>
<path fill="none" stroke="black" d="M600,-85.11C600,-104.95 600,-133.8 600,-133.8 600,-133.8 1401.28,-133.8 1401.28,-133.8"/>
<polygon fill="black" stroke="black" points="1401.28,-137.3 1411.28,-133.8 1401.28,-130.3 1401.28,-137.3"/>
</g>
<!-- StripeModule -->
<g id="node19" class="node">
<title>StripeModule</title>
<polygon fill="#8dd3c7" stroke="black" points="540.49,-84.8 537.49,-88.8 516.49,-88.8 513.49,-84.8 447.51,-84.8 447.51,-48.8 540.49,-48.8 540.49,-84.8"/>
<text text-anchor="middle" x="494" y="-62.6" font-family="Times,serif" font-size="14.00">StripeModule</text>
</g>
<!-- StripeModule&#45;&gt;AppModule -->
<g id="edge19" class="edge">
<title>StripeModule&#45;&gt;AppModule</title>
<path fill="none" stroke="black" d="M494,-84.83C494,-105.57 494,-136.8 494,-136.8 494,-136.8 1401.18,-136.8 1401.18,-136.8"/>
<polygon fill="black" stroke="black" points="1401.18,-140.3 1411.18,-136.8 1401.18,-133.3 1401.18,-140.3"/>
</g>
<!-- StripeWebhookModule -->
<g id="node20" class="node">
<title>StripeWebhookModule</title>
<polygon fill="#8dd3c7" stroke="black" points="429.92,-84.8 426.92,-88.8 405.92,-88.8 402.92,-84.8 282.08,-84.8 282.08,-48.8 429.92,-48.8 429.92,-84.8"/>
<text text-anchor="middle" x="356" y="-62.6" font-family="Times,serif" font-size="14.00">StripeWebhookModule</text>
</g>
<!-- StripeWebhookModule&#45;&gt;AppModule -->
<g id="edge20" class="edge">
<title>StripeWebhookModule&#45;&gt;AppModule</title>
<path fill="none" stroke="black" d="M356,-85.09C356,-107.01 356,-140.8 356,-140.8 356,-140.8 1401.34,-140.8 1401.34,-140.8"/>
<polygon fill="black" stroke="black" points="1401.34,-144.3 1411.34,-140.8 1401.34,-137.3 1401.34,-144.3"/>
</g>
<!-- SubscriptionsModule -->
<g id="node21" class="node">
<title>SubscriptionsModule</title>
<polygon fill="#8dd3c7" stroke="black" points="263.78,-84.8 260.78,-88.8 239.78,-88.8 236.78,-84.8 128.22,-84.8 128.22,-48.8 263.78,-48.8 263.78,-84.8"/>
<text text-anchor="middle" x="196" y="-62.6" font-family="Times,serif" font-size="14.00">SubscriptionsModule</text>
</g>
<!-- SubscriptionsModule&#45;&gt;AppModule -->
<g id="edge21" class="edge">
<title>SubscriptionsModule&#45;&gt;AppModule</title>
<path fill="none" stroke="black" d="M196,-85.05C196,-107.82 196,-143.8 196,-143.8 196,-143.8 1401.18,-143.8 1401.18,-143.8"/>
<polygon fill="black" stroke="black" points="1401.18,-147.3 1411.18,-143.8 1401.18,-140.3 1401.18,-147.3"/>
</g>
<!-- UserModule -->
<g id="node22" class="node">
<title>UserModule</title>
<polygon fill="#8dd3c7" stroke="black" points="109.99,-84.8 106.99,-88.8 85.99,-88.8 82.99,-84.8 24.01,-84.8 24.01,-48.8 109.99,-48.8 109.99,-84.8"/>
<text text-anchor="middle" x="67" y="-62.6" font-family="Times,serif" font-size="14.00">UserModule</text>
</g>
<!-- UserModule&#45;&gt;AppModule -->
<g id="edge22" class="edge">
<title>UserModule&#45;&gt;AppModule</title>
<path fill="none" stroke="black" d="M67,-84.95C67,-108.56 67,-146.8 67,-146.8 67,-146.8 1401.14,-146.8 1401.14,-146.8"/>
<polygon fill="black" stroke="black" points="1401.14,-150.3 1411.14,-146.8 1401.14,-143.3 1401.14,-150.3"/>
</g>
</g>
</svg>
