<?xml version="1.0" encoding="UTF-8" standalone="no"?>
<!DOCTYPE svg PUBLIC "-//W3C//DTD SVG 1.1//EN"
 "http://www.w3.org/Graphics/SVG/1.1/DTD/svg11.dtd">
<!-- Generated by graphviz version 3.0.0 (20220226.1711)
 -->
<!-- Title: dependencies Pages: 1 -->
<svg width="578pt" height="174pt"
 viewBox="0.00 0.00 578.00 173.80" xmlns="http://www.w3.org/2000/svg" xmlns:xlink="http://www.w3.org/1999/xlink">
<g id="graph0" class="graph" transform="scale(1 1) rotate(0) translate(4 169.8)">
<title>dependencies</title>
<polygon fill="white" stroke="transparent" points="-4,4 -4,-169.8 574,-169.8 574,4 -4,4"/>
<text text-anchor="middle" x="285" y="-8.2" font-family="sans-serif" font-size="14.00">dependencies</text>
<g id="clust1" class="cluster">
<title>cluster_GoogleAuthenticationModule</title>
<polygon fill="none" stroke="black" stroke-dasharray="1,5" points="8,-32.8 8,-157.8 562,-157.8 562,-32.8 8,-32.8"/>
</g>
<g id="clust3" class="cluster">
<title>cluster_GoogleAuthenticationModule_imports</title>
<polygon fill="none" stroke="black" points="292,-40.8 292,-92.8 554,-92.8 554,-40.8 292,-40.8"/>
</g>
<g id="clust6" class="cluster">
<title>cluster_GoogleAuthenticationModule_providers</title>
<polygon fill="none" stroke="black" points="16,-40.8 16,-92.8 284,-92.8 284,-40.8 16,-40.8"/>
</g>
<!-- AuthenticationModule -->
<g id="node1" class="node">
<title>AuthenticationModule</title>
<polygon fill="#8dd3c7" stroke="black" points="546.25,-84.8 543.25,-88.8 522.25,-88.8 519.25,-84.8 403.75,-84.8 403.75,-48.8 546.25,-48.8 546.25,-84.8"/>
<text text-anchor="middle" x="475" y="-62.6" font-family="Times,serif" font-size="14.00">AuthenticationModule</text>
</g>
<!-- GoogleAuthenticationModule -->
<g id="node3" class="node">
<title>GoogleAuthenticationModule</title>
<polygon fill="#8dd3c7" stroke="black" points="434.97,-149.8 431.97,-153.8 410.97,-153.8 407.97,-149.8 251.03,-149.8 251.03,-113.8 434.97,-113.8 434.97,-149.8"/>
<text text-anchor="middle" x="343" y="-127.6" font-family="Times,serif" font-size="14.00">GoogleAuthenticationModule</text>
</g>
<!-- AuthenticationModule&#45;&gt;GoogleAuthenticationModule -->
<g id="edge1" class="edge">
<title>AuthenticationModule&#45;&gt;GoogleAuthenticationModule</title>
<path fill="none" stroke="black" d="M419.3,-84.91C419.3,-84.91 419.3,-103.79 419.3,-103.79"/>
<polygon fill="black" stroke="black" points="415.8,-103.79 419.3,-113.79 422.8,-103.79 415.8,-103.79"/>
</g>
<!-- UserModule -->
<g id="node2" class="node">
<title>UserModule</title>
<polygon fill="#8dd3c7" stroke="black" points="385.99,-84.8 382.99,-88.8 361.99,-88.8 358.99,-84.8 300.01,-84.8 300.01,-48.8 385.99,-48.8 385.99,-84.8"/>
<text text-anchor="middle" x="343" y="-62.6" font-family="Times,serif" font-size="14.00">UserModule</text>
</g>
<!-- UserModule&#45;&gt;GoogleAuthenticationModule -->
<g id="edge2" class="edge">
<title>UserModule&#45;&gt;GoogleAuthenticationModule</title>
<path fill="none" stroke="black" d="M343,-84.91C343,-84.91 343,-103.79 343,-103.79"/>
<polygon fill="black" stroke="black" points="339.5,-103.79 343,-113.79 346.5,-103.79 339.5,-103.79"/>
</g>
<!-- GoogleAuthenticationService -->
<g id="node4" class="node">
<title>GoogleAuthenticationService</title>
<ellipse fill="#fdb462" stroke="black" cx="150" cy="-66.8" rx="125.62" ry="18"/>
<text text-anchor="middle" x="150" y="-62.6" font-family="Times,serif" font-size="14.00">GoogleAuthenticationService</text>
</g>
<!-- GoogleAuthenticationService&#45;&gt;GoogleAuthenticationModule -->
<g id="edge3" class="edge">
<title>GoogleAuthenticationService&#45;&gt;GoogleAuthenticationModule</title>
<path fill="none" stroke="black" d="M263.41,-74.77C263.41,-74.77 263.41,-103.67 263.41,-103.67"/>
<polygon fill="black" stroke="black" points="259.91,-103.67 263.41,-113.67 266.91,-103.67 259.91,-103.67"/>
</g>
</g>
</svg>
