<?xml version="1.0" encoding="UTF-8" standalone="no"?>
<!DOCTYPE svg PUBLIC "-//W3C//DTD SVG 1.1//EN"
 "http://www.w3.org/Graphics/SVG/1.1/DTD/svg11.dtd">
<!-- Generated by graphviz version 3.0.0 (20220226.1711)
 -->
<!-- Title: dependencies Pages: 1 -->
<svg width="1585pt" height="247pt"
 viewBox="0.00 0.00 1585.00 246.80" xmlns="http://www.w3.org/2000/svg" xmlns:xlink="http://www.w3.org/1999/xlink">
<g id="graph0" class="graph" transform="scale(1 1) rotate(0) translate(4 242.8)">
<title>dependencies</title>
<polygon fill="white" stroke="transparent" points="-4,4 -4,-242.8 1581,-242.8 1581,4 -4,4"/>
<text text-anchor="middle" x="788.5" y="-8.2" font-family="sans-serif" font-size="14.00">dependencies</text>
<g id="clust1" class="cluster">
<title>cluster_AuthenticationModule</title>
<polygon fill="none" stroke="black" stroke-dasharray="1,5" points="8,-32.8 8,-230.8 1569,-230.8 1569,-32.8 8,-32.8"/>
</g>
<g id="clust3" class="cluster">
<title>cluster_AuthenticationModule_imports</title>
<polygon fill="none" stroke="black" points="1273,-40.8 1273,-92.8 1561,-92.8 1561,-40.8 1273,-40.8"/>
</g>
<g id="clust6" class="cluster">
<title>cluster_AuthenticationModule_providers</title>
<polygon fill="none" stroke="black" points="16,-40.8 16,-92.8 1265,-92.8 1265,-40.8 16,-40.8"/>
</g>
<g id="clust4" class="cluster">
<title>cluster_AuthenticationModule_exports</title>
<polygon fill="none" stroke="black" points="729,-170.8 729,-222.8 895,-222.8 895,-170.8 729,-170.8"/>
</g>
<!-- EmailConfirmationModule -->
<g id="node1" class="node">
<title>EmailConfirmationModule</title>
<polygon fill="#8dd3c7" stroke="black" points="1553.42,-84.8 1550.42,-88.8 1529.42,-88.8 1526.42,-84.8 1384.58,-84.8 1384.58,-48.8 1553.42,-48.8 1553.42,-84.8"/>
<text text-anchor="middle" x="1469" y="-62.6" font-family="Times,serif" font-size="14.00">EmailConfirmationModule</text>
</g>
<!-- AuthenticationModule -->
<g id="node3" class="node">
<title>AuthenticationModule</title>
<polygon fill="#8dd3c7" stroke="black" points="883.25,-149.8 880.25,-153.8 859.25,-153.8 856.25,-149.8 740.75,-149.8 740.75,-113.8 883.25,-113.8 883.25,-149.8"/>
<text text-anchor="middle" x="812" y="-127.6" font-family="Times,serif" font-size="14.00">AuthenticationModule</text>
</g>
<!-- EmailConfirmationModule&#45;&gt;AuthenticationModule -->
<g id="edge1" class="edge">
<title>EmailConfirmationModule&#45;&gt;AuthenticationModule</title>
<path fill="none" stroke="black" d="M1469,-85.09C1469,-107.01 1469,-140.8 1469,-140.8 1469,-140.8 893.56,-140.8 893.56,-140.8"/>
<polygon fill="black" stroke="black" points="893.56,-137.3 883.56,-140.8 893.56,-144.3 893.56,-137.3"/>
</g>
<!-- UserModule -->
<g id="node2" class="node">
<title>UserModule</title>
<polygon fill="#8dd3c7" stroke="black" points="1366.99,-84.8 1363.99,-88.8 1342.99,-88.8 1339.99,-84.8 1281.01,-84.8 1281.01,-48.8 1366.99,-48.8 1366.99,-84.8"/>
<text text-anchor="middle" x="1324" y="-62.6" font-family="Times,serif" font-size="14.00">UserModule</text>
</g>
<!-- UserModule&#45;&gt;AuthenticationModule -->
<g id="edge2" class="edge">
<title>UserModule&#45;&gt;AuthenticationModule</title>
<path fill="none" stroke="black" d="M1324,-84.91C1324,-104.14 1324,-131.8 1324,-131.8 1324,-131.8 893.46,-131.8 893.46,-131.8"/>
<polygon fill="black" stroke="black" points="893.46,-128.3 883.46,-131.8 893.46,-135.3 893.46,-128.3"/>
</g>
<!-- AuthenticationServices  -->
<g id="node4" class="node">
<title>AuthenticationServices </title>
<polygon fill="#fb8072" stroke="black" points="887.13,-214.8 736.87,-214.8 736.87,-178.8 887.13,-178.8 887.13,-214.8"/>
<text text-anchor="middle" x="812" y="-192.6" font-family="Times,serif" font-size="14.00">AuthenticationServices </text>
</g>
<!-- AuthenticationModule&#45;&gt;AuthenticationServices  -->
<g id="edge3" class="edge">
<title>AuthenticationModule&#45;&gt;AuthenticationServices </title>
<path fill="none" stroke="black" stroke-dasharray="5,2" d="M812,-149.91C812,-149.91 812,-168.79 812,-168.79"/>
<polygon fill="black" stroke="black" points="808.5,-168.79 812,-178.79 815.5,-168.79 808.5,-168.79"/>
</g>
<!-- AuthenticationServices -->
<g id="node5" class="node">
<title>AuthenticationServices</title>
<ellipse fill="#fdb462" stroke="black" cx="1156" cy="-66.8" rx="101.28" ry="18"/>
<text text-anchor="middle" x="1156" y="-62.6" font-family="Times,serif" font-size="14.00">AuthenticationServices</text>
</g>
<!-- AuthenticationServices&#45;&gt;AuthenticationModule -->
<g id="edge4" class="edge">
<title>AuthenticationServices&#45;&gt;AuthenticationModule</title>
<path fill="none" stroke="black" d="M1156,-84.83C1156,-101.2 1156,-122.8 1156,-122.8 1156,-122.8 893.28,-122.8 893.28,-122.8"/>
<polygon fill="black" stroke="black" points="893.28,-119.3 883.28,-122.8 893.28,-126.3 893.28,-119.3"/>
</g>
<!-- JwtRefreshTokenStrategy -->
<g id="node6" class="node">
<title>JwtRefreshTokenStrategy</title>
<ellipse fill="#fdb462" stroke="black" cx="926" cy="-66.8" rx="111.17" ry="18"/>
<text text-anchor="middle" x="926" y="-62.6" font-family="Times,serif" font-size="14.00">JwtRefreshTokenStrategy</text>
</g>
<!-- JwtRefreshTokenStrategy&#45;&gt;AuthenticationModule -->
<g id="edge5" class="edge">
<title>JwtRefreshTokenStrategy&#45;&gt;AuthenticationModule</title>
<path fill="none" stroke="black" d="M849.02,-79.95C849.02,-79.95 849.02,-103.49 849.02,-103.49"/>
<polygon fill="black" stroke="black" points="845.52,-103.49 849.02,-113.49 852.52,-103.49 845.52,-103.49"/>
</g>
<!-- JwtTwoFactorStrategy -->
<g id="node7" class="node">
<title>JwtTwoFactorStrategy</title>
<ellipse fill="#fdb462" stroke="black" cx="698" cy="-66.8" rx="99.01" ry="18"/>
<text text-anchor="middle" x="698" y="-62.6" font-family="Times,serif" font-size="14.00">JwtTwoFactorStrategy</text>
</g>
<!-- JwtTwoFactorStrategy&#45;&gt;AuthenticationModule -->
<g id="edge6" class="edge">
<title>JwtTwoFactorStrategy&#45;&gt;AuthenticationModule</title>
<path fill="none" stroke="black" d="M768.81,-79.64C768.81,-79.64 768.81,-103.32 768.81,-103.32"/>
<polygon fill="black" stroke="black" points="765.31,-103.32 768.81,-113.32 772.31,-103.32 765.31,-103.32"/>
</g>
<!-- LocalStrategy -->
<g id="node8" class="node">
<title>LocalStrategy</title>
<ellipse fill="#fdb462" stroke="black" cx="516" cy="-66.8" rx="65.4" ry="18"/>
<text text-anchor="middle" x="516" y="-62.6" font-family="Times,serif" font-size="14.00">LocalStrategy</text>
</g>
<!-- LocalStrategy&#45;&gt;AuthenticationModule -->
<g id="edge7" class="edge">
<title>LocalStrategy&#45;&gt;AuthenticationModule</title>
<path fill="none" stroke="black" d="M516,-84.83C516,-101.2 516,-122.8 516,-122.8 516,-122.8 730.72,-122.8 730.72,-122.8"/>
<polygon fill="black" stroke="black" points="730.72,-126.3 740.72,-122.8 730.72,-119.3 730.72,-126.3"/>
</g>
<!-- TwoFactorAuthenticationService -->
<g id="node9" class="node">
<title>TwoFactorAuthenticationService</title>
<ellipse fill="#fdb462" stroke="black" cx="293" cy="-66.8" rx="139.51" ry="18"/>
<text text-anchor="middle" x="293" y="-62.6" font-family="Times,serif" font-size="14.00">TwoFactorAuthenticationService</text>
</g>
<!-- TwoFactorAuthenticationService&#45;&gt;AuthenticationModule -->
<g id="edge8" class="edge">
<title>TwoFactorAuthenticationService&#45;&gt;AuthenticationModule</title>
<path fill="none" stroke="black" d="M293,-84.91C293,-104.14 293,-131.8 293,-131.8 293,-131.8 730.65,-131.8 730.65,-131.8"/>
<polygon fill="black" stroke="black" points="730.65,-135.3 740.65,-131.8 730.65,-128.3 730.65,-135.3"/>
</g>
<!-- jwtStrategy -->
<g id="node10" class="node">
<title>jwtStrategy</title>
<ellipse fill="#fdb462" stroke="black" cx="80" cy="-66.8" rx="55.62" ry="18"/>
<text text-anchor="middle" x="80" y="-62.6" font-family="Times,serif" font-size="14.00">jwtStrategy</text>
</g>
<!-- jwtStrategy&#45;&gt;AuthenticationModule -->
<g id="edge9" class="edge">
<title>jwtStrategy&#45;&gt;AuthenticationModule</title>
<path fill="none" stroke="black" d="M80,-85.09C80,-107.01 80,-140.8 80,-140.8 80,-140.8 730.48,-140.8 730.48,-140.8"/>
<polygon fill="black" stroke="black" points="730.48,-144.3 740.48,-140.8 730.48,-137.3 730.48,-144.3"/>
</g>
</g>
</svg>
