<?xml version="1.0" encoding="UTF-8" standalone="no"?>
<!DOCTYPE svg PUBLIC "-//W3C//DTD SVG 1.1//EN"
 "http://www.w3.org/Graphics/SVG/1.1/DTD/svg11.dtd">
<!-- Generated by graphviz version 3.0.0 (20220226.1711)
 -->
<!-- Title: dependencies Pages: 1 -->
<svg width="252pt" height="174pt"
 viewBox="0.00 0.00 252.00 173.80" xmlns="http://www.w3.org/2000/svg" xmlns:xlink="http://www.w3.org/1999/xlink">
<g id="graph0" class="graph" transform="scale(1 1) rotate(0) translate(4 169.8)">
<title>dependencies</title>
<polygon fill="white" stroke="transparent" points="-4,4 -4,-169.8 248,-169.8 248,4 -4,4"/>
<text text-anchor="middle" x="122" y="-8.2" font-family="sans-serif" font-size="14.00">dependencies</text>
<g id="clust1" class="cluster">
<title>cluster_StripeWebhookModule</title>
<polygon fill="none" stroke="black" stroke-dasharray="1,5" points="8,-32.8 8,-157.8 236,-157.8 236,-32.8 8,-32.8"/>
</g>
<g id="clust3" class="cluster">
<title>cluster_StripeWebhookModule_imports</title>
<polygon fill="none" stroke="black" points="16,-40.8 16,-92.8 228,-92.8 228,-40.8 16,-40.8"/>
</g>
<!-- StripeModule -->
<g id="node1" class="node">
<title>StripeModule</title>
<polygon fill="#8dd3c7" stroke="black" points="220.49,-84.8 217.49,-88.8 196.49,-88.8 193.49,-84.8 127.51,-84.8 127.51,-48.8 220.49,-48.8 220.49,-84.8"/>
<text text-anchor="middle" x="174" y="-62.6" font-family="Times,serif" font-size="14.00">StripeModule</text>
</g>
<!-- StripeWebhookModule -->
<g id="node3" class="node">
<title>StripeWebhookModule</title>
<polygon fill="#8dd3c7" stroke="black" points="195.92,-149.8 192.92,-153.8 171.92,-153.8 168.92,-149.8 48.08,-149.8 48.08,-113.8 195.92,-113.8 195.92,-149.8"/>
<text text-anchor="middle" x="122" y="-127.6" font-family="Times,serif" font-size="14.00">StripeWebhookModule</text>
</g>
<!-- StripeModule&#45;&gt;StripeWebhookModule -->
<g id="edge1" class="edge">
<title>StripeModule&#45;&gt;StripeWebhookModule</title>
<path fill="none" stroke="black" d="M161.61,-84.91C161.61,-84.91 161.61,-103.79 161.61,-103.79"/>
<polygon fill="black" stroke="black" points="158.11,-103.79 161.61,-113.79 165.11,-103.79 158.11,-103.79"/>
</g>
<!-- UserModule -->
<g id="node2" class="node">
<title>UserModule</title>
<polygon fill="#8dd3c7" stroke="black" points="109.99,-84.8 106.99,-88.8 85.99,-88.8 82.99,-84.8 24.01,-84.8 24.01,-48.8 109.99,-48.8 109.99,-84.8"/>
<text text-anchor="middle" x="67" y="-62.6" font-family="Times,serif" font-size="14.00">UserModule</text>
</g>
<!-- UserModule&#45;&gt;StripeWebhookModule -->
<g id="edge2" class="edge">
<title>UserModule&#45;&gt;StripeWebhookModule</title>
<path fill="none" stroke="black" d="M79.14,-84.91C79.14,-84.91 79.14,-103.79 79.14,-103.79"/>
<polygon fill="black" stroke="black" points="75.64,-103.79 79.14,-113.79 82.64,-103.79 75.64,-103.79"/>
</g>
</g>
</svg>
