<?xml version="1.0" encoding="UTF-8" standalone="no"?>
<!DOCTYPE svg PUBLIC "-//W3C//DTD SVG 1.1//EN"
 "http://www.w3.org/Graphics/SVG/1.1/DTD/svg11.dtd">
<!-- Generated by graphviz version 3.0.0 (20220226.1711)
 -->
<!-- Title: dependencies Pages: 1 -->
<svg width="482pt" height="174pt"
 viewBox="0.00 0.00 482.00 173.80" xmlns="http://www.w3.org/2000/svg" xmlns:xlink="http://www.w3.org/1999/xlink">
<g id="graph0" class="graph" transform="scale(1 1) rotate(0) translate(4 169.8)">
<title>dependencies</title>
<polygon fill="white" stroke="transparent" points="-4,4 -4,-169.8 478,-169.8 478,4 -4,4"/>
<text text-anchor="middle" x="237" y="-8.2" font-family="sans-serif" font-size="14.00">dependencies</text>
<g id="clust1" class="cluster">
<title>cluster_PostsModule</title>
<polygon fill="none" stroke="black" stroke-dasharray="1,5" points="8,-32.8 8,-157.8 466,-157.8 466,-32.8 8,-32.8"/>
</g>
<g id="clust3" class="cluster">
<title>cluster_PostsModule_imports</title>
<polygon fill="none" stroke="black" points="344,-40.8 344,-92.8 458,-92.8 458,-40.8 344,-40.8"/>
</g>
<g id="clust6" class="cluster">
<title>cluster_PostsModule_providers</title>
<polygon fill="none" stroke="black" points="16,-40.8 16,-92.8 336,-92.8 336,-40.8 16,-40.8"/>
</g>
<!-- SearchModule -->
<g id="node1" class="node">
<title>SearchModule</title>
<polygon fill="#8dd3c7" stroke="black" points="449.64,-84.8 446.64,-88.8 425.64,-88.8 422.64,-84.8 352.36,-84.8 352.36,-48.8 449.64,-48.8 449.64,-84.8"/>
<text text-anchor="middle" x="401" y="-62.6" font-family="Times,serif" font-size="14.00">SearchModule</text>
</g>
<!-- PostsModule -->
<g id="node2" class="node">
<title>PostsModule</title>
<polygon fill="#8dd3c7" stroke="black" points="289.62,-149.8 286.62,-153.8 265.62,-153.8 262.62,-149.8 200.38,-149.8 200.38,-113.8 289.62,-113.8 289.62,-149.8"/>
<text text-anchor="middle" x="245" y="-127.6" font-family="Times,serif" font-size="14.00">PostsModule</text>
</g>
<!-- SearchModule&#45;&gt;PostsModule -->
<g id="edge1" class="edge">
<title>SearchModule&#45;&gt;PostsModule</title>
<path fill="none" stroke="black" d="M401,-84.91C401,-104.14 401,-131.8 401,-131.8 401,-131.8 299.7,-131.8 299.7,-131.8"/>
<polygon fill="black" stroke="black" points="299.7,-128.3 289.7,-131.8 299.7,-135.3 299.7,-128.3"/>
</g>
<!-- PostSearchService -->
<g id="node3" class="node">
<title>PostSearchService</title>
<ellipse fill="#fdb462" stroke="black" cx="245" cy="-66.8" rx="82.81" ry="18"/>
<text text-anchor="middle" x="245" y="-62.6" font-family="Times,serif" font-size="14.00">PostSearchService</text>
</g>
<!-- PostSearchService&#45;&gt;PostsModule -->
<g id="edge2" class="edge">
<title>PostSearchService&#45;&gt;PostsModule</title>
<path fill="none" stroke="black" d="M245,-84.91C245,-84.91 245,-103.79 245,-103.79"/>
<polygon fill="black" stroke="black" points="241.5,-103.79 245,-113.79 248.5,-103.79 241.5,-103.79"/>
</g>
<!-- PostsService -->
<g id="node4" class="node">
<title>PostsService</title>
<ellipse fill="#fdb462" stroke="black" cx="84" cy="-66.8" rx="60.28" ry="18"/>
<text text-anchor="middle" x="84" y="-62.6" font-family="Times,serif" font-size="14.00">PostsService</text>
</g>
<!-- PostsService&#45;&gt;PostsModule -->
<g id="edge3" class="edge">
<title>PostsService&#45;&gt;PostsModule</title>
<path fill="none" stroke="black" d="M84,-84.91C84,-104.14 84,-131.8 84,-131.8 84,-131.8 190.15,-131.8 190.15,-131.8"/>
<polygon fill="black" stroke="black" points="190.15,-135.3 200.15,-131.8 190.15,-128.3 190.15,-135.3"/>
</g>
</g>
</svg>
